<svg width="30" height="30" viewBox="0 0 30 30" fill="none" xmlns="http://www.w3.org/2000/svg">
<path d="M9.22291 6.91375C9.86495 6.28776 10.7262 5.93743 11.6229 5.9375H24.4942C25.2417 5.9375 26.1117 6.145 26.8229 6.58625C27.5467 7.03375 28.2104 7.80375 28.2104 8.90625V21.0938C28.2104 22.1963 27.5467 22.965 26.8229 23.4138C26.1191 23.8355 25.3146 24.0596 24.4942 24.0625H11.6229C10.7262 24.0626 9.86495 23.7122 9.22291 23.0862L2.53541 16.5663C2.32639 16.3625 2.16027 16.1189 2.04685 15.8499C1.93343 15.5809 1.875 15.2919 1.875 15C1.875 14.7081 1.93343 14.4191 2.04685 14.1501C2.16027 13.8811 2.32639 13.6375 2.53541 13.4337L9.22291 6.91375ZM17.5379 11.8375C17.4521 11.7454 17.3486 11.6715 17.2336 11.6203C17.1186 11.569 16.9944 11.5415 16.8686 11.5393C16.7427 11.537 16.6176 11.5602 16.5009 11.6073C16.3842 11.6545 16.2781 11.7247 16.1891 11.8137C16.1001 11.9027 16.0299 12.0088 15.9828 12.1255C15.9356 12.2422 15.9124 12.3673 15.9147 12.4932C15.9169 12.619 15.9444 12.7432 15.9957 12.8582C16.0469 12.9732 16.1208 13.0767 16.2129 13.1625L18.0504 15L16.2129 16.8375C16.1208 16.9233 16.0469 17.0268 15.9957 17.1418C15.9444 17.2568 15.9169 17.381 15.9147 17.5068C15.9124 17.6327 15.9356 17.7578 15.9828 17.8745C16.0299 17.9912 16.1001 18.0973 16.1891 18.1863C16.2781 18.2753 16.3842 18.3455 16.5009 18.3927C16.6176 18.4398 16.7427 18.463 16.8686 18.4607C16.9944 18.4585 17.1186 18.431 17.2336 18.3797C17.3486 18.3285 17.4521 18.2546 17.5379 18.1625L19.3754 16.325L21.2129 18.1625C21.2987 18.2546 21.4022 18.3285 21.5172 18.3797C21.6322 18.431 21.7564 18.4585 21.8823 18.4607C22.0081 18.463 22.1332 18.4398 22.2499 18.3927C22.3666 18.3455 22.4727 18.2753 22.5617 18.1863C22.6507 18.0973 22.7209 17.9912 22.7681 17.8745C22.8152 17.7578 22.8384 17.6327 22.8361 17.5068C22.8339 17.381 22.8064 17.2568 22.7551 17.1418C22.7039 17.0268 22.63 16.9233 22.5379 16.8375L20.7004 15L22.5379 13.1625C22.63 13.0767 22.7039 12.9732 22.7551 12.8582C22.8064 12.7432 22.8339 12.619 22.8361 12.4932C22.8384 12.3673 22.8152 12.2422 22.7681 12.1255C22.7209 12.0088 22.6507 11.9027 22.5617 11.8137C22.4727 11.7247 22.3666 11.6545 22.2499 11.6073C22.1332 11.5602 22.0081 11.537 21.8823 11.5393C21.7564 11.5415 21.6322 11.569 21.5172 11.6203C21.4022 11.6715 21.2987 11.7454 21.2129 11.8375L19.3754 13.675L17.5379 11.8375Z" fill="#2F527A"/>
</svg>
