<svg width="113" height="64" viewBox="0 0 113 64" fill="none" xmlns="http://www.w3.org/2000/svg">
<rect width="48.0431" height="11.4929" rx="5.74643" transform="matrix(0.422618 0.906308 -0.913239 0.407423 10.7109 0.944214)" fill="#2F527A"/>
<rect width="37.1418" height="11.4862" rx="5.74308" transform="matrix(0.422618 -0.906308 0.913611 0.406588 16 44.6619)" fill="#3D6A9F"/>
<circle cx="40.2419" cy="6.24192" r="5.24192" fill="#5284BD"/>
<path d="M44.2466 25.3054C44.2466 24.5454 44.4966 23.9054 44.9966 23.3854C45.5166 22.8654 46.1966 22.6054 47.0366 22.6054C47.8766 22.6054 48.5466 22.8654 49.0466 23.3854C49.5666 23.9054 49.8266 24.5454 49.8266 25.3054C49.8266 26.0654 49.5666 26.7054 49.0466 27.2254C48.5466 27.7454 47.8766 28.0054 47.0366 28.0054C46.1966 28.0054 45.5166 27.7454 44.9966 27.2254C44.4966 26.7054 44.2466 26.0654 44.2466 25.3054ZM49.5866 43.9054C49.3666 43.9454 49.0366 43.9954 48.5966 44.0554C48.1766 44.1354 47.7466 44.1754 47.3066 44.1754C46.8666 44.1754 46.4666 44.1454 46.1066 44.0854C45.7666 44.0254 45.4766 43.9054 45.2366 43.7254C44.9966 43.5454 44.8066 43.3054 44.6666 43.0054C44.5466 42.6854 44.4866 42.2754 44.4866 41.7754V29.5654C44.7066 29.5254 45.0266 29.4754 45.4466 29.4154C45.8866 29.3354 46.3266 29.2954 46.7666 29.2954C47.2066 29.2954 47.5966 29.3254 47.9366 29.3854C48.2966 29.4454 48.5966 29.5654 48.8366 29.7454C49.0766 29.9254 49.2566 30.1754 49.3766 30.4954C49.5166 30.7954 49.5866 31.1954 49.5866 31.6954V43.9054ZM60.5434 44.4154C59.3634 44.4154 58.2634 44.2554 57.2434 43.9354C56.2434 43.5954 55.3634 43.0954 54.6034 42.4354C53.8634 41.7754 53.2734 40.9454 52.8334 39.9454C52.4134 38.9454 52.2034 37.7754 52.2034 36.4354C52.2034 35.1154 52.4134 33.9854 52.8334 33.0454C53.2734 32.0854 53.8434 31.3054 54.5434 30.7054C55.2434 30.0854 56.0434 29.6354 56.9434 29.3554C57.8434 29.0554 58.7634 28.9054 59.7034 28.9054C60.7634 28.9054 61.7234 29.0654 62.5834 29.3854C63.4634 29.7054 64.2134 30.1454 64.8334 30.7054C65.4734 31.2654 65.9634 31.9354 66.3034 32.7154C66.6634 33.4954 66.8434 34.3454 66.8434 35.2654C66.8434 35.9454 66.6534 36.4654 66.2734 36.8254C65.8934 37.1854 65.3634 37.4154 64.6834 37.5154L57.2734 38.6254C57.4934 39.2854 57.9434 39.7854 58.6234 40.1254C59.3034 40.4454 60.0834 40.6054 60.9634 40.6054C61.7834 40.6054 62.5534 40.5054 63.2734 40.3054C64.0134 40.0854 64.6134 39.8354 65.0734 39.5554C65.3934 39.7554 65.6634 40.0354 65.8834 40.3954C66.1034 40.7554 66.2134 41.1354 66.2134 41.5354C66.2134 42.4354 65.7934 43.1054 64.9534 43.5454C64.3134 43.8854 63.5934 44.1154 62.7934 44.2354C61.9934 44.3554 61.2434 44.4154 60.5434 44.4154ZM59.7034 32.6254C59.2234 32.6254 58.8034 32.7054 58.4434 32.8654C58.1034 33.0254 57.8234 33.2354 57.6034 33.4954C57.3834 33.7354 57.2134 34.0154 57.0934 34.3354C56.9934 34.6354 56.9334 34.9454 56.9134 35.2654L62.0434 34.4254C61.9834 34.0254 61.7634 33.6254 61.3834 33.2254C61.0034 32.8254 60.4434 32.6254 59.7034 32.6254ZM77.6083 43.4854C77.3283 43.7254 76.9483 43.9154 76.4683 44.0554C75.9883 44.2154 75.4183 44.2954 74.7583 44.2954C73.9383 44.2954 73.2283 44.1754 72.6283 43.9354C72.0283 43.7154 71.6283 43.3954 71.4283 42.9754C71.2083 42.4954 70.9483 41.7354 70.6483 40.6954C70.3683 39.6554 70.0883 38.5154 69.8083 37.2754C69.5283 36.0354 69.2583 34.7754 68.9983 33.4954C68.7583 32.2154 68.5683 31.0854 68.4283 30.1054C68.7083 29.8254 69.0783 29.5854 69.5383 29.3854C70.0183 29.1654 70.5383 29.0554 71.0983 29.0554C71.7983 29.0554 72.3683 29.2154 72.8083 29.5354C73.2683 29.8354 73.5483 30.3654 73.6483 31.1254C73.8483 32.6454 74.0183 33.9054 74.1583 34.9054C74.2983 35.8854 74.4083 36.6954 74.4883 37.3354C74.5883 37.9554 74.6583 38.4354 74.6983 38.7754C74.7583 39.0954 74.8083 39.3554 74.8483 39.5554H74.9683C75.0283 39.2354 75.1283 38.7754 75.2683 38.1754C75.4283 37.5554 75.6083 36.8554 75.8083 36.0754C76.0083 35.2954 76.2183 34.4554 76.4383 33.5554C76.6583 32.6354 76.8783 31.7254 77.0983 30.8254C77.4983 30.6054 77.8883 30.4354 78.2683 30.3154C78.6683 30.1954 79.1583 30.1354 79.7383 30.1354C80.4383 30.1354 81.0383 30.2454 81.5383 30.4654C82.0383 30.6854 82.3583 31.0254 82.4983 31.4854C82.7383 32.3654 82.9683 33.2254 83.1883 34.0654C83.4083 34.8854 83.6083 35.6554 83.7883 36.3754C83.9683 37.0754 84.1283 37.7054 84.2683 38.2654C84.4083 38.8054 84.5083 39.2354 84.5683 39.5554H84.7183C84.9383 38.0154 85.1483 36.4154 85.3483 34.7554C85.5683 33.0954 85.7683 31.4054 85.9483 29.6854C86.3083 29.4654 86.6883 29.3054 87.0883 29.2054C87.4883 29.1054 87.8883 29.0554 88.2883 29.0554C88.9883 29.0554 89.5683 29.2054 90.0283 29.5054C90.4883 29.8054 90.7183 30.3254 90.7183 31.0654C90.7183 31.3854 90.6683 31.8654 90.5683 32.5054C90.4683 33.1454 90.3383 33.8654 90.1783 34.6654C90.0183 35.4654 89.8283 36.3054 89.6083 37.1854C89.4083 38.0654 89.1983 38.9154 88.9783 39.7354C88.7783 40.5554 88.5783 41.2954 88.3783 41.9554C88.1983 42.6154 88.0383 43.1254 87.8983 43.4854C87.6183 43.7254 87.1883 43.9154 86.6083 44.0554C86.0283 44.2154 85.4083 44.2954 84.7483 44.2954C83.0683 44.2954 82.0783 43.8754 81.7783 43.0354C81.6583 42.6754 81.5083 42.2254 81.3283 41.6854C81.1483 41.1254 80.9583 40.5154 80.7583 39.8554C80.5583 39.1954 80.3683 38.5154 80.1883 37.8154C80.0083 37.0954 79.8583 36.4054 79.7383 35.7454C79.5983 36.4454 79.4283 37.1754 79.2283 37.9354C79.0283 38.6754 78.8183 39.4054 78.5983 40.1254C78.3983 40.8254 78.2083 41.4754 78.0283 42.0754C77.8483 42.6554 77.7083 43.1254 77.6083 43.4854ZM98.6688 43.8154C98.4488 43.8754 98.0988 43.9354 97.6188 43.9954C97.1588 44.0554 96.6988 44.0854 96.2388 44.0854C95.7788 44.0854 95.3688 44.0454 95.0088 43.9654C94.6688 43.9054 94.3788 43.7854 94.1388 43.6054C93.8988 43.4254 93.7188 43.1754 93.5988 42.8554C93.4788 42.5354 93.4188 42.1154 93.4188 41.5954V25.7554C93.6388 25.7154 93.9888 25.6654 94.4688 25.6054C94.9488 25.5254 95.4088 25.4854 95.8488 25.4854C96.3088 25.4854 96.7088 25.5254 97.0488 25.6054C97.4088 25.6654 97.7088 25.7854 97.9488 25.9654C98.1888 26.1454 98.3688 26.3954 98.4888 26.7154C98.6088 27.0354 98.6688 27.4554 98.6688 27.9754V43.8154ZM107.269 38.9254C107.269 39.4454 107.429 39.8154 107.749 40.0354C108.089 40.2554 108.559 40.3654 109.159 40.3654C109.459 40.3654 109.769 40.3454 110.089 40.3054C110.409 40.2454 110.689 40.1754 110.929 40.0954C111.109 40.3154 111.259 40.5654 111.379 40.8454C111.519 41.1054 111.589 41.4254 111.589 41.8054C111.589 42.5654 111.299 43.1854 110.719 43.6654C110.159 44.1454 109.159 44.3854 107.719 44.3854C105.959 44.3854 104.599 43.9854 103.639 43.1854C102.699 42.3854 102.229 41.0854 102.229 39.2854V26.4454C102.449 26.3854 102.759 26.3254 103.159 26.2654C103.579 26.1854 104.019 26.1454 104.479 26.1454C105.359 26.1454 106.039 26.3054 106.519 26.6254C107.019 26.9254 107.269 27.5754 107.269 28.5754V30.4954H111.199C111.319 30.7154 111.429 30.9954 111.529 31.3354C111.649 31.6554 111.709 32.0154 111.709 32.4154C111.709 33.1154 111.549 33.6254 111.229 33.9454C110.929 34.2454 110.519 34.3954 109.999 34.3954H107.269V38.9254Z" fill="#2F527A"/>
</svg>
