<svg width="120" height="122" viewBox="0 0 120 122" fill="none" xmlns="http://www.w3.org/2000/svg">
<path d="M60 111.405C87.6142 111.405 110 88.7931 110 60.8999C110 33.0067 87.6142 10.3949 60 10.3949C32.3858 10.3949 10 33.0067 10 60.8999C10 88.7931 32.3858 111.405 60 111.405Z" stroke="#FF0000" stroke-width="10.8333" stroke-linecap="round"/>
<path d="M39.4043 82.3342C41.8693 80.1777 45.1143 78.6221 48.6143 77.6019C52.3198 76.5545 56.1515 76.0326 59.9993 76.0514C63.9293 76.0514 67.8493 76.5716 71.3843 77.6019C74.8843 78.6221 78.1343 80.1777 80.5943 82.3342" stroke="#FF0000" stroke-width="10.8333" stroke-linecap="round"/>
<path d="M45 57.112C48.4518 57.112 51.25 54.2855 51.25 50.7989C51.25 47.3122 48.4518 44.4858 45 44.4858C41.5482 44.4858 38.75 47.3122 38.75 50.7989C38.75 54.2855 41.5482 57.112 45 57.112Z" fill="#FF0000" stroke="#FF0000" stroke-width="2.70833" stroke-linecap="round"/>
<path d="M75 57.112C78.4518 57.112 81.25 54.2855 81.25 50.7989C81.25 47.3122 78.4518 44.4858 75 44.4858C71.5482 44.4858 68.75 47.3122 68.75 50.7989C68.75 54.2855 71.5482 57.112 75 57.112Z" fill="#FF0000" stroke="#FF0000" stroke-width="2.70833" stroke-linecap="round"/>
</svg>
