<svg width="135" height="137" viewBox="0 0 135 137" fill="none" xmlns="http://www.w3.org/2000/svg">
<path d="M80.775 81.1158C77.0148 84.1781 72.3302 85.8481 67.5 85.8481C62.6699 85.8481 57.9852 84.1781 54.225 81.1158C53.0763 80.1514 51.5953 79.6874 50.1079 79.8259C48.6206 79.9644 47.2486 80.6941 46.2938 81.8544C45.339 83.0147 44.8796 84.5107 45.0168 86.0131C45.1539 87.5155 45.8763 88.9014 47.025 89.8658C52.77 94.7101 60.0163 97.3637 67.5 97.3637C74.9837 97.3637 82.23 94.7101 87.975 89.8658C89.1237 88.9014 89.8461 87.5155 89.9833 86.0131C90.1204 84.5107 89.661 83.0147 88.7063 81.8544C88.2335 81.2799 87.6534 80.805 86.9989 80.457C86.3445 80.1089 85.6286 79.8945 84.8921 79.8259C83.4047 79.6874 81.9237 80.1514 80.775 81.1158ZM50.625 62.7635C51.7375 62.7635 52.8251 62.4303 53.7501 61.806C54.6751 61.1816 55.3961 60.2943 55.8218 59.2561C56.2476 58.2178 56.359 57.0754 56.1419 55.9732C55.9249 54.8711 55.3892 53.8587 54.6025 53.0641C53.8158 52.2694 52.8135 51.7283 51.7224 51.5091C50.6313 51.2898 49.5003 51.4024 48.4724 51.8324C47.4446 52.2624 46.5661 52.9907 45.948 53.9251C45.3299 54.8594 45 55.958 45 57.0817C45 58.5886 45.5927 60.0338 46.6475 61.0994C47.7024 62.1649 49.1332 62.7635 50.625 62.7635ZM84.375 51.3999C83.2625 51.3999 82.175 51.7331 81.2499 52.3575C80.3249 52.9818 79.6039 53.8692 79.1782 54.9074C78.7525 55.9456 78.6411 57.088 78.8581 58.1902C79.0751 59.2923 79.6109 60.3047 80.3975 61.0994C81.1842 61.894 82.1865 62.4351 83.2776 62.6544C84.3688 62.8736 85.4998 62.7611 86.5276 62.331C87.5555 61.901 88.434 61.1727 89.052 60.2384C89.6701 59.304 90 58.2055 90 57.0817C90 55.5748 89.4074 54.1296 88.3525 53.0641C87.2976 51.9985 85.8669 51.3999 84.375 51.3999ZM67.5 11.6272C56.3748 11.6272 45.4995 14.9595 36.2492 21.2028C26.9989 27.446 19.7892 36.3198 15.5318 46.702C11.2744 57.0841 10.1604 68.5084 12.3309 79.53C14.5013 90.5517 19.8586 100.676 27.7253 108.622C35.592 116.568 45.6148 121.979 56.5262 124.172C67.4376 126.364 78.7476 125.239 89.026 120.938C99.3043 116.638 108.089 109.356 114.27 100.012C120.451 90.6681 123.75 79.6829 123.75 68.4453C123.75 60.9839 122.295 53.5955 119.468 46.702C116.641 39.8085 112.498 33.5449 107.275 28.2688C102.051 22.9928 95.8505 18.8076 89.026 15.9522C82.2014 13.0968 74.8869 11.6272 67.5 11.6272ZM67.5 113.9C58.5999 113.9 49.8996 111.234 42.4994 106.239C35.0991 101.245 29.3314 94.1458 25.9254 85.84C22.5195 77.5343 21.6284 68.3949 23.3647 59.5776C25.101 50.7603 29.3869 42.6611 35.6802 36.3041C41.9736 29.9472 49.9918 25.6181 58.721 23.8642C67.4501 22.1103 76.4981 23.0105 84.7208 26.4508C92.9435 29.8912 99.9715 35.7172 104.916 43.1922C109.861 50.6671 112.5 59.4553 112.5 68.4453C112.5 80.5006 107.759 92.0622 99.3198 100.587C90.8807 109.111 79.4348 113.9 67.5 113.9Z" fill="#179415"/>
</svg>
